<svg width="512" height="512" viewBox="0 0 512 512" fill="none" xmlns="http://www.w3.org/2000/svg">
<rect width="512" height="512" fill="#121212"/>
<path fill-rule="evenodd" clip-rule="evenodd" d="M229.556 151.889C178.264 151.889 137 177.701 137 209.25C137 225.598 148.184 240.225 165.924 250.837L160.139 249.403L144.713 289.556L200.246 263.743C209.502 265.751 219.143 266.611 229.556 266.611C280.847 266.611 322.111 240.799 322.111 209.25C322.111 177.701 280.847 151.889 229.556 151.889Z" fill="#9A7DD6"/>
<path fill-rule="evenodd" clip-rule="evenodd" d="M282.444 113C333.736 113 375 147.708 375 190.13C375 212.112 363.816 231.78 346.076 246.049L351.861 244.12L367.287 298.111L311.754 263.403C302.498 266.102 292.857 267.259 282.444 267.259C231.153 267.259 189.889 232.551 189.889 190.13C189.889 147.708 231.153 113 282.444 113Z" fill="#BB99FF"/>
<g filter="url(#filter0_d)">
<path d="M68.452 313.603H92.09V317.207H73.593V328.443H90.341V332.047H73.593V348H68.452V313.603ZM98.1092 313.603H103.25V344.396H120.157V348H98.1092V313.603ZM139.106 348.53C129.496 348.53 124.69 345.421 124.69 339.202V322.931C124.69 316.359 129.496 313.073 139.106 313.073C148.823 313.073 153.681 316.341 153.681 322.878V339.202C153.681 342.523 152.339 344.908 149.653 346.357C146.968 347.806 143.452 348.53 139.106 348.53ZM139.212 345.085C145.537 345.085 148.699 343.106 148.699 339.149V322.772C148.699 318.532 145.519 316.412 139.159 316.412C136.085 316.412 133.718 316.889 132.057 317.843C130.432 318.797 129.619 320.44 129.619 322.772V339.149C129.619 343.106 132.817 345.085 139.212 345.085ZM171.633 313.603H177.569L190.925 348H185.572L181.65 337.559H166.916L163.047 348H157.959L171.633 313.603ZM180.378 334.008L174.548 318.479H174.071L168.241 334.008H180.378ZM204.67 317.207H193.01V313.603H221.471V317.207H209.864V348H204.67V317.207ZM227.193 313.603H232.334V348H227.193V313.603ZM241.22 313.603H247.421L266.13 342.011V313.603H270.635V348H264.434L245.725 319.115V348H241.22V313.603ZM294.307 348.53C292.682 348.53 291.233 348.459 289.961 348.318C288.725 348.177 287.417 347.912 286.039 347.523C284.485 347.099 283.177 346.569 282.117 345.933C281.057 345.262 280.192 344.361 279.52 343.23C278.814 342.029 278.46 340.686 278.46 339.202V322.931C278.46 320.952 278.973 319.256 279.997 317.843C281.022 316.43 282.435 315.405 284.237 314.769C285.969 314.168 287.612 313.744 289.166 313.497C290.756 313.214 292.47 313.073 294.307 313.073C298.689 313.073 302.646 313.356 306.179 313.921V317.896C304.837 317.578 302.911 317.295 300.402 317.048C297.929 316.765 295.933 316.624 294.413 316.624C287.17 316.624 283.548 318.709 283.548 322.878V339.096C283.548 340.227 283.884 341.216 284.555 342.064C285.262 342.912 286.216 343.53 287.417 343.919C288.548 344.343 289.679 344.643 290.809 344.82C291.94 344.961 293.212 345.032 294.625 345.032C296.993 345.032 299.519 344.714 302.204 344.078V332.047H294.148V328.443H306.974V346.94C302.381 348 298.159 348.53 294.307 348.53ZM328.228 348.53C318.582 348.53 313.759 345.421 313.759 339.202V322.878C313.759 316.306 318.582 313.02 328.228 313.02C331.514 313.02 334.659 313.356 337.662 314.027V317.843C334.27 316.995 331.161 316.571 328.334 316.571C326.956 316.571 325.755 316.659 324.73 316.836C323.706 316.977 322.716 317.242 321.762 317.631C319.713 318.514 318.688 320.246 318.688 322.825V338.937C318.688 342.894 321.974 344.873 328.546 344.873C331.373 344.873 334.482 344.449 337.874 343.601V347.523C334.871 348.194 331.656 348.53 328.228 348.53ZM344.735 313.603H349.876V328.443H368.161V313.603H373.302V348H368.161V332.047H349.876V348H344.735V313.603ZM392.225 313.603H398.161L411.517 348H406.164L402.242 337.559H387.508L383.639 348H378.551L392.225 313.603ZM400.97 334.008L395.14 318.479H394.663L388.833 334.008H400.97ZM425.262 317.207H413.602V313.603H442.063V317.207H430.456V348H425.262V317.207Z" fill="#BB99FF"/>
</g>
<path d="M78.108 388H77.147C76.9197 388 76.8473 387.876 76.93 387.628L83.099 368.439C83.161 368.191 83.3057 368.067 83.533 368.067H84.99C85.1967 368.067 85.3413 368.191 85.424 368.439L91.593 387.628C91.655 387.876 91.5827 388 91.376 388H90.384C90.1773 388 90.043 387.876 89.981 387.628L88.307 382.668H80.185L78.511 387.628C78.4283 387.876 78.294 388 78.108 388ZM84.184 369.772L80.619 381.273H87.904L84.308 369.772H84.184ZM111.954 386.946V387.659C111.954 387.886 111.84 388 111.613 388H107.149C105.806 388 104.741 387.607 103.956 386.822C103.191 386.037 102.809 384.962 102.809 383.598V376.592C102.809 375.228 103.191 374.153 103.956 373.368C104.741 372.583 105.806 372.19 107.149 372.19H111.613C111.84 372.19 111.954 372.304 111.954 372.531V373.275C111.954 373.482 111.84 373.585 111.613 373.585H107.273C106.322 373.585 105.599 373.854 105.103 374.391C104.607 374.928 104.359 375.683 104.359 376.654V383.536C104.359 384.507 104.607 385.262 105.103 385.799C105.599 386.336 106.322 386.605 107.273 386.605H111.613C111.84 386.605 111.954 386.719 111.954 386.946ZM116.528 388H115.629C115.422 388 115.319 387.876 115.319 387.628V366.579C115.319 366.331 115.422 366.207 115.629 366.207H116.528C116.755 366.207 116.869 366.331 116.869 366.579V373.802H116.993C117.572 372.727 118.646 372.19 120.217 372.19H122.263C123.586 372.19 124.629 372.583 125.394 373.368C126.159 374.153 126.541 375.228 126.541 376.592V387.628C126.541 387.876 126.438 388 126.231 388H125.332C125.105 388 124.991 387.876 124.991 387.628V376.654C124.991 375.683 124.743 374.928 124.247 374.391C123.751 373.854 123.028 373.585 122.077 373.585H120.062C119.07 373.585 118.285 373.854 117.706 374.391C117.148 374.908 116.869 375.652 116.869 376.623V387.628C116.869 387.876 116.755 388 116.528 388ZM137.045 388H135.061C133.718 388 132.653 387.607 131.868 386.822C131.103 386.037 130.721 384.962 130.721 383.598V376.592C130.721 375.228 131.103 374.153 131.868 373.368C132.653 372.583 133.718 372.19 135.061 372.19H141.633C141.84 372.19 141.943 372.314 141.943 372.562V387.628C141.943 387.876 141.84 388 141.633 388H140.734C140.507 388 140.393 387.876 140.393 387.628V386.388H140.269C139.732 387.463 138.657 388 137.045 388ZM140.393 383.567V373.864C140.393 373.678 140.29 373.585 140.083 373.585H135.185C134.234 373.585 133.511 373.854 133.015 374.391C132.519 374.928 132.271 375.683 132.271 376.654V383.536C132.271 384.507 132.519 385.262 133.015 385.799C133.511 386.336 134.234 386.605 135.185 386.605H137.2C138.192 386.605 138.967 386.347 139.525 385.83C140.104 385.293 140.393 384.538 140.393 383.567ZM147.274 373.585H145.383C145.155 373.585 145.042 373.482 145.042 373.275V372.531C145.042 372.304 145.155 372.19 145.383 372.19H147.274C147.46 372.19 147.553 372.097 147.553 371.911V369.4C147.553 369.152 147.666 369.028 147.894 369.028H148.793C149.02 369.028 149.134 369.152 149.134 369.4V371.911C149.134 372.097 149.227 372.19 149.413 372.19H153.102C153.329 372.19 153.443 372.304 153.443 372.531V373.275C153.443 373.482 153.329 373.585 153.102 373.585H149.413C149.227 373.585 149.134 373.678 149.134 373.864V383.629C149.134 384.58 149.402 385.313 149.94 385.83C150.477 386.347 151.231 386.605 152.203 386.605H153.412C153.639 386.605 153.753 386.719 153.753 386.946V387.659C153.753 387.886 153.639 388 153.412 388H152.079C150.715 388 149.619 387.618 148.793 386.853C147.966 386.088 147.553 385.034 147.553 383.691V373.864C147.553 373.678 147.46 373.585 147.274 373.585ZM168.858 372.19H171.679C171.927 372.19 172.051 372.304 172.051 372.531V373.244C172.051 373.471 171.927 373.585 171.679 373.585H168.858C168.672 373.585 168.579 373.678 168.579 373.864V387.628C168.579 387.876 168.466 388 168.238 388H167.339C167.112 388 166.998 387.876 166.998 387.628V373.864C166.998 373.678 166.905 373.585 166.719 373.585H164.735C164.508 373.585 164.394 373.471 164.394 373.244V372.531C164.394 372.304 164.508 372.19 164.735 372.19H166.719C166.905 372.19 166.998 372.097 166.998 371.911V370.547C166.998 367.654 168.311 366.207 170.935 366.207H171.679C171.927 366.207 172.051 366.321 172.051 366.548V367.261C172.051 367.488 171.927 367.602 171.679 367.602H171.09C170.16 367.602 169.509 367.85 169.137 368.346C168.765 368.842 168.579 369.596 168.579 370.609V371.911C168.579 372.097 168.672 372.19 168.858 372.19ZM181.684 388H179.018C177.675 388 176.61 387.607 175.825 386.822C175.06 386.037 174.678 384.962 174.678 383.598V376.592C174.678 375.228 175.06 374.153 175.825 373.368C176.61 372.583 177.675 372.19 179.018 372.19H181.684C183.027 372.19 184.092 372.583 184.877 373.368C185.662 374.153 186.055 375.228 186.055 376.592V383.598C186.055 384.962 185.662 386.037 184.877 386.822C184.092 387.607 183.027 388 181.684 388ZM179.142 386.605H181.56C182.511 386.605 183.234 386.347 183.73 385.83C184.247 385.293 184.505 384.538 184.505 383.567V376.623C184.505 375.652 184.247 374.908 183.73 374.391C183.234 373.854 182.511 373.585 181.56 373.585H179.142C178.191 373.585 177.468 373.854 176.972 374.391C176.476 374.908 176.228 375.652 176.228 376.623V383.567C176.228 384.538 176.476 385.293 176.972 385.83C177.468 386.347 178.191 386.605 179.142 386.605ZM191.576 388H190.677C190.47 388 190.367 387.876 190.367 387.628V372.562C190.367 372.314 190.47 372.19 190.677 372.19H191.576C191.803 372.19 191.917 372.314 191.917 372.562V373.864H192.041C192.268 373.43 192.671 373.048 193.25 372.717C193.829 372.366 194.542 372.19 195.389 372.19H196.598C196.825 372.19 196.939 372.304 196.939 372.531V373.275C196.939 373.502 196.825 373.606 196.598 373.585H195.141C194.128 373.585 193.333 373.895 192.754 374.515C192.196 375.135 191.917 375.972 191.917 377.026V387.628C191.917 387.876 191.803 388 191.576 388ZM211.604 372.19H214.425C214.673 372.19 214.797 372.304 214.797 372.531V373.244C214.797 373.471 214.673 373.585 214.425 373.585H211.604C211.418 373.585 211.325 373.678 211.325 373.864V387.628C211.325 387.876 211.212 388 210.984 388H210.085C209.858 388 209.744 387.876 209.744 387.628V373.864C209.744 373.678 209.651 373.585 209.465 373.585H207.481C207.254 373.585 207.14 373.471 207.14 373.244V372.531C207.14 372.304 207.254 372.19 207.481 372.19H209.465C209.651 372.19 209.744 372.097 209.744 371.911V370.547C209.744 367.654 211.057 366.207 213.681 366.207H214.425C214.673 366.207 214.797 366.321 214.797 366.548V367.261C214.797 367.488 214.673 367.602 214.425 367.602H213.836C212.906 367.602 212.255 367.85 211.883 368.346C211.511 368.842 211.325 369.596 211.325 370.609V371.911C211.325 372.097 211.418 372.19 211.604 372.19ZM223.748 388H221.764C220.421 388 219.357 387.607 218.571 386.822C217.807 386.037 217.424 384.962 217.424 383.598V376.592C217.424 375.228 217.807 374.153 218.571 373.368C219.357 372.583 220.421 372.19 221.764 372.19H228.336C228.543 372.19 228.646 372.314 228.646 372.562V387.628C228.646 387.876 228.543 388 228.336 388H227.437C227.21 388 227.096 387.876 227.096 387.628V386.388H226.972C226.435 387.463 225.36 388 223.748 388ZM227.096 383.567V373.864C227.096 373.678 226.993 373.585 226.786 373.585H221.888C220.938 373.585 220.214 373.854 219.718 374.391C219.222 374.928 218.974 375.683 218.974 376.654V383.536C218.974 384.507 219.222 385.262 219.718 385.799C220.214 386.336 220.938 386.605 221.888 386.605H223.903C224.895 386.605 225.67 386.347 226.228 385.83C226.807 385.293 227.096 384.538 227.096 383.567ZM238.41 388H233.016C232.788 388 232.675 387.886 232.675 387.659V386.946C232.675 386.739 232.788 386.636 233.016 386.636H238.255C240.115 386.636 241.045 385.913 241.045 384.466V383.722C241.045 382.379 240.466 381.5 239.309 381.087L235.434 379.599C234.38 379.186 233.625 378.7 233.171 378.142C232.737 377.584 232.52 376.809 232.52 375.817C232.52 373.399 233.853 372.19 236.519 372.19H241.541C241.768 372.19 241.882 372.304 241.882 372.531V373.244C241.882 373.451 241.768 373.554 241.541 373.554H236.674C235.826 373.554 235.186 373.74 234.752 374.112C234.338 374.484 234.132 374.918 234.132 375.414V376.127C234.132 376.706 234.287 377.16 234.597 377.491C234.927 377.822 235.423 378.101 236.085 378.328L239.96 379.878C241.034 380.229 241.747 380.756 242.099 381.459C242.471 382.141 242.657 383.102 242.657 384.342C242.657 385.582 242.305 386.502 241.603 387.101C240.921 387.7 239.856 388 238.41 388ZM247.327 373.585H245.436C245.209 373.585 245.095 373.482 245.095 373.275V372.531C245.095 372.304 245.209 372.19 245.436 372.19H247.327C247.513 372.19 247.606 372.097 247.606 371.911V369.4C247.606 369.152 247.72 369.028 247.947 369.028H248.846C249.074 369.028 249.187 369.152 249.187 369.4V371.911C249.187 372.097 249.28 372.19 249.466 372.19H253.155C253.383 372.19 253.496 372.304 253.496 372.531V373.275C253.496 373.482 253.383 373.585 253.155 373.585H249.466C249.28 373.585 249.187 373.678 249.187 373.864V383.629C249.187 384.58 249.456 385.313 249.993 385.83C250.531 386.347 251.285 386.605 252.256 386.605H253.465C253.693 386.605 253.806 386.719 253.806 386.946V387.659C253.806 387.886 253.693 388 253.465 388H252.132C250.768 388 249.673 387.618 248.846 386.853C248.02 386.088 247.606 385.034 247.606 383.691V373.864C247.606 373.678 247.513 373.585 247.327 373.585ZM274.492 386.946V387.659C274.492 387.886 274.378 388 274.151 388H269.687C268.344 388 267.279 387.607 266.494 386.822C265.729 386.037 265.347 384.962 265.347 383.598V376.592C265.347 375.228 265.729 374.153 266.494 373.368C267.279 372.583 268.344 372.19 269.687 372.19H274.151C274.378 372.19 274.492 372.304 274.492 372.531V373.275C274.492 373.482 274.378 373.585 274.151 373.585H269.811C268.86 373.585 268.137 373.854 267.641 374.391C267.145 374.928 266.897 375.683 266.897 376.654V383.536C266.897 384.507 267.145 385.262 267.641 385.799C268.137 386.336 268.86 386.605 269.811 386.605H274.151C274.378 386.605 274.492 386.719 274.492 386.946ZM284.553 388H281.887C280.544 388 279.48 387.607 278.694 386.822C277.93 386.037 277.547 384.962 277.547 383.598V376.592C277.547 375.228 277.93 374.153 278.694 373.368C279.48 372.583 280.544 372.19 281.887 372.19H284.553C285.897 372.19 286.961 372.583 287.746 373.368C288.532 374.153 288.924 375.228 288.924 376.592V383.598C288.924 384.962 288.532 386.037 287.746 386.822C286.961 387.607 285.897 388 284.553 388ZM282.011 386.605H284.429C285.38 386.605 286.103 386.347 286.599 385.83C287.116 385.293 287.374 384.538 287.374 383.567V376.623C287.374 375.652 287.116 374.908 286.599 374.391C286.103 373.854 285.38 373.585 284.429 373.585H282.011C281.061 373.585 280.337 373.854 279.841 374.391C279.345 374.908 279.097 375.652 279.097 376.623V383.567C279.097 384.538 279.345 385.293 279.841 385.83C280.337 386.347 281.061 386.605 282.011 386.605ZM294.445 388H293.546C293.339 388 293.236 387.876 293.236 387.628V372.562C293.236 372.314 293.339 372.19 293.546 372.19H294.445C294.672 372.19 294.786 372.314 294.786 372.562V373.802H294.91C295.489 372.727 296.563 372.19 298.134 372.19H300.18C301.503 372.19 302.546 372.583 303.311 373.368C304.076 374.153 304.458 375.228 304.458 376.592V387.628C304.458 387.876 304.355 388 304.148 388H303.249C303.022 388 302.908 387.876 302.908 387.628V376.654C302.908 375.683 302.66 374.928 302.164 374.391C301.668 373.854 300.945 373.585 299.994 373.585H297.979C296.987 373.585 296.202 373.854 295.623 374.391C295.065 374.908 294.786 375.652 294.786 376.623V387.628C294.786 387.876 294.672 388 294.445 388ZM307.491 372.19H308.452C308.659 372.19 308.793 372.314 308.855 372.562L313.009 386.264H313.133L317.256 372.562C317.339 372.314 317.473 372.19 317.659 372.19H318.651C318.878 372.19 318.951 372.314 318.868 372.562L314.187 387.628C314.125 387.876 313.98 388 313.753 388H312.389C312.162 388 312.007 387.876 311.924 387.628L307.243 372.562C307.181 372.314 307.264 372.19 307.491 372.19ZM332.354 388H325.875C324.531 388 323.467 387.607 322.682 386.822C321.917 386.037 321.535 384.962 321.535 383.598V376.592C321.535 375.228 321.917 374.153 322.682 373.368C323.467 372.583 324.531 372.19 325.875 372.19H328.541C329.884 372.19 330.948 372.583 331.734 373.368C332.519 374.153 332.912 375.228 332.912 376.592V380.529C332.912 380.777 332.788 380.901 332.54 380.901H323.364C323.178 380.901 323.085 380.994 323.085 381.18V383.567C323.085 384.538 323.333 385.293 323.829 385.83C324.325 386.347 325.048 386.605 325.999 386.605H332.354C332.581 386.605 332.695 386.719 332.695 386.946V387.659C332.695 387.886 332.581 388 332.354 388ZM323.364 379.661H331.083C331.269 379.661 331.362 379.568 331.362 379.382V376.623C331.362 375.652 331.114 374.908 330.618 374.391C330.122 373.854 329.398 373.585 328.448 373.585H325.999C325.048 373.585 324.325 373.854 323.829 374.391C323.333 374.908 323.085 375.652 323.085 376.623V379.382C323.085 379.568 323.178 379.661 323.364 379.661ZM338.311 388H337.412C337.206 388 337.102 387.876 337.102 387.628V372.562C337.102 372.314 337.206 372.19 337.412 372.19H338.311C338.539 372.19 338.652 372.314 338.652 372.562V373.864H338.776C339.004 373.43 339.407 373.048 339.985 372.717C340.564 372.366 341.277 372.19 342.124 372.19H343.333C343.561 372.19 343.674 372.304 343.674 372.531V373.275C343.674 373.502 343.561 373.606 343.333 373.585H341.876C340.864 373.585 340.068 373.895 339.489 374.515C338.931 375.135 338.652 375.972 338.652 377.026V387.628C338.652 387.876 338.539 388 338.311 388ZM351.935 388H346.541C346.314 388 346.2 387.886 346.2 387.659V386.946C346.2 386.739 346.314 386.636 346.541 386.636H351.78C353.64 386.636 354.57 385.913 354.57 384.466V383.722C354.57 382.379 353.991 381.5 352.834 381.087L348.959 379.599C347.905 379.186 347.151 378.7 346.696 378.142C346.262 377.584 346.045 376.809 346.045 375.817C346.045 373.399 347.378 372.19 350.044 372.19H355.066C355.293 372.19 355.407 372.304 355.407 372.531V373.244C355.407 373.451 355.293 373.554 355.066 373.554H350.199C349.352 373.554 348.711 373.74 348.277 374.112C347.864 374.484 347.657 374.918 347.657 375.414V376.127C347.657 376.706 347.812 377.16 348.122 377.491C348.453 377.822 348.949 378.101 349.61 378.328L353.485 379.878C354.56 380.229 355.273 380.756 355.624 381.459C355.996 382.141 356.182 383.102 356.182 384.342C356.182 385.582 355.831 386.502 355.128 387.101C354.446 387.7 353.382 388 351.935 388ZM366.185 388H364.201C362.857 388 361.793 387.607 361.008 386.822C360.243 386.037 359.861 384.962 359.861 383.598V376.592C359.861 375.228 360.243 374.153 361.008 373.368C361.793 372.583 362.857 372.19 364.201 372.19H370.773C370.979 372.19 371.083 372.314 371.083 372.562V387.628C371.083 387.876 370.979 388 370.773 388H369.874C369.646 388 369.533 387.876 369.533 387.628V386.388H369.409C368.871 387.463 367.797 388 366.185 388ZM369.533 383.567V373.864C369.533 373.678 369.429 373.585 369.223 373.585H364.325C363.374 373.585 362.651 373.854 362.155 374.391C361.659 374.928 361.411 375.683 361.411 376.654V383.536C361.411 384.507 361.659 385.262 362.155 385.799C362.651 386.336 363.374 386.605 364.325 386.605H366.34C367.332 386.605 368.107 386.347 368.665 385.83C369.243 385.293 369.533 384.538 369.533 383.567ZM376.413 373.585H374.522C374.295 373.585 374.181 373.482 374.181 373.275V372.531C374.181 372.304 374.295 372.19 374.522 372.19H376.413C376.599 372.19 376.692 372.097 376.692 371.911V369.4C376.692 369.152 376.806 369.028 377.033 369.028H377.932C378.16 369.028 378.273 369.152 378.273 369.4V371.911C378.273 372.097 378.366 372.19 378.552 372.19H382.241C382.469 372.19 382.582 372.304 382.582 372.531V373.275C382.582 373.482 382.469 373.585 382.241 373.585H378.552C378.366 373.585 378.273 373.678 378.273 373.864V383.629C378.273 384.58 378.542 385.313 379.079 385.83C379.617 386.347 380.371 386.605 381.342 386.605H382.551C382.779 386.605 382.892 386.719 382.892 386.946V387.659C382.892 387.886 382.779 388 382.551 388H381.218C379.854 388 378.759 387.618 377.932 386.853C377.106 386.088 376.692 385.034 376.692 383.691V373.864C376.692 373.678 376.599 373.585 376.413 373.585ZM386.633 369.586V366.61C386.633 366.383 386.737 366.269 386.943 366.269H387.873C388.08 366.269 388.183 366.383 388.183 366.61V369.586C388.183 369.834 388.08 369.958 387.873 369.958H386.943C386.737 369.958 386.633 369.834 386.633 369.586ZM386.633 387.628V372.562C386.633 372.314 386.737 372.19 386.943 372.19H387.842C388.07 372.19 388.183 372.314 388.183 372.562V387.628C388.183 387.876 388.08 388 387.873 388H386.943C386.737 388 386.633 387.876 386.633 387.628ZM399.683 388H397.017C395.674 388 394.609 387.607 393.824 386.822C393.059 386.037 392.677 384.962 392.677 383.598V376.592C392.677 375.228 393.059 374.153 393.824 373.368C394.609 372.583 395.674 372.19 397.017 372.19H399.683C401.026 372.19 402.091 372.583 402.876 373.368C403.661 374.153 404.054 375.228 404.054 376.592V383.598C404.054 384.962 403.661 386.037 402.876 386.822C402.091 387.607 401.026 388 399.683 388ZM397.141 386.605H399.559C400.51 386.605 401.233 386.347 401.729 385.83C402.246 385.293 402.504 384.538 402.504 383.567V376.623C402.504 375.652 402.246 374.908 401.729 374.391C401.233 373.854 400.51 373.585 399.559 373.585H397.141C396.19 373.585 395.467 373.854 394.971 374.391C394.475 374.908 394.227 375.652 394.227 376.623V383.567C394.227 384.538 394.475 385.293 394.971 385.83C395.467 386.347 396.19 386.605 397.141 386.605ZM409.575 388H408.676C408.469 388 408.366 387.876 408.366 387.628V372.562C408.366 372.314 408.469 372.19 408.676 372.19H409.575C409.802 372.19 409.916 372.314 409.916 372.562V373.802H410.04C410.619 372.727 411.693 372.19 413.264 372.19H415.31C416.633 372.19 417.676 372.583 418.441 373.368C419.206 374.153 419.588 375.228 419.588 376.592V387.628C419.588 387.876 419.485 388 419.278 388H418.379C418.152 388 418.038 387.876 418.038 387.628V376.654C418.038 375.683 417.79 374.928 417.294 374.391C416.798 373.854 416.075 373.585 415.124 373.585H413.109C412.117 373.585 411.332 373.854 410.753 374.391C410.195 374.908 409.916 375.652 409.916 376.623V387.628C409.916 387.876 409.802 388 409.575 388ZM429.193 388H423.799C423.572 388 423.458 387.886 423.458 387.659V386.946C423.458 386.739 423.572 386.636 423.799 386.636H429.038C430.898 386.636 431.828 385.913 431.828 384.466V383.722C431.828 382.379 431.249 381.5 430.092 381.087L426.217 379.599C425.163 379.186 424.409 378.7 423.954 378.142C423.52 377.584 423.303 376.809 423.303 375.817C423.303 373.399 424.636 372.19 427.302 372.19H432.324C432.551 372.19 432.665 372.304 432.665 372.531V373.244C432.665 373.451 432.551 373.554 432.324 373.554H427.457C426.61 373.554 425.969 373.74 425.535 374.112C425.122 374.484 424.915 374.918 424.915 375.414V376.127C424.915 376.706 425.07 377.16 425.38 377.491C425.711 377.822 426.207 378.101 426.868 378.328L430.743 379.878C431.818 380.229 432.531 380.756 432.882 381.459C433.254 382.141 433.44 383.102 433.44 384.342C433.44 385.582 433.089 386.502 432.386 387.101C431.704 387.7 430.64 388 429.193 388Z" fill="#CCCCCC"/>
<defs>
<filter id="filter0_d" x="68.452" y="313.02" width="381.611" height="43.51" filterUnits="userSpaceOnUse" color-interpolation-filters="sRGB">
<feFlood flood-opacity="0" result="BackgroundImageFix"/>
<feColorMatrix in="SourceAlpha" type="matrix" values="0 0 0 0 0 0 0 0 0 0 0 0 0 0 0 0 0 0 127 0"/>
<feOffset dx="4" dy="4"/>
<feGaussianBlur stdDeviation="2"/>
<feColorMatrix type="matrix" values="0 0 0 0 0.733333 0 0 0 0 0.6 0 0 0 0 1 0 0 0 0.5 0"/>
<feBlend mode="normal" in2="BackgroundImageFix" result="effect1_dropShadow"/>
<feBlend mode="normal" in="SourceGraphic" in2="effect1_dropShadow" result="shape"/>
</filter>
</defs>
</svg>
