<svg width="32" height="48" viewBox="0 0 32 48" fill="none" xmlns="http://www.w3.org/2000/svg">
<path fill-rule="evenodd" clip-rule="evenodd" d="M3.59998 24C3.59998 17.1 9.2 11.6 16 11.6C16.5 11.6 16.9 11.6 17.4 11.7L11.6 17.6L14.1 20.1L24.1 10.1L14.1 0.0999756L11.6 2.59998L17.2 8.09998C16.8 8.09998 16.5 8 16.1 8C7.29998 8 0.0999756 15.2 0.0999756 24C0.0999756 28.7 2.09999 32.9 5.29999 35.8L7.79999 33.3C5.19999 31 3.59998 27.7 3.59998 24ZM32 24C32 19.3 30 15.1 26.8 12.2L24.3 14.7C26.9 17 28.5 20.3 28.5 24C28.5 30.9 22.9 36.4 16.1 36.4C15.6 36.4 15.2 36.4 14.7 36.3L20.6 30.5L18.1 28L8.09998 38L18.1 48L20.6 45.5L15 39.9C15.4 39.9 15.7 40 16.1 40C24.8 40 32 32.8 32 24Z" fill="black"/>
</svg>
